<svg width="32" height="32" viewBox="0 0 32 32" fill="none" xmlns="http://www.w3.org/2000/svg">
<path d="M4.08223 9.65935C4.14459 8.2967 4.35796 7.41785 4.6465 6.67186L4.65039 6.66155C4.93632 5.90244 5.38425 5.21475 5.96299 4.64636L5.97112 4.63838L5.97909 4.63026C6.54796 4.05077 7.23588 3.60328 7.99434 3.3181L8.00742 3.3131C8.75171 3.02365 9.62884 2.81108 10.9926 2.74873M4.08223 9.65935C4.01668 11.1153 3.99997 11.5666 3.99997 15.3415C3.99997 19.1174 4.01576 19.5676 4.0822 21.0239M4.08223 9.65935L4.08223 10.0266M4.65157 24.0222C4.93675 24.7806 5.38424 25.4686 5.96372 26.0374L5.97183 26.0454L5.9798 26.0535C6.54822 26.6322 7.23593 27.0802 7.99505 27.3661L8.00639 27.3704C8.75136 27.6593 9.62891 27.872 10.9926 27.9343M4.65157 24.0222L4.64657 24.0091C4.35712 23.2648 4.14455 22.3877 4.0822 21.0239M4.65157 24.0222L4.63447 23.9321M4.0822 21.0239L4.10453 21.1415M4.0822 21.0239L4.0822 20.6557M4.63447 23.9321L4.10453 21.1415M4.63447 23.9321C4.4094 23.3375 4.17764 22.5079 4.10453 21.1415M4.63447 23.9321C4.64237 23.953 4.65025 23.9736 4.65813 23.9939C4.94356 24.7633 5.39582 25.4601 5.98239 26.034C6.55612 26.6205 7.2526 27.0727 8.02182 27.3581C8.63914 27.5986 9.50898 27.8498 10.9924 27.9178C12.4895 27.9859 12.952 27.9998 16.675 27.9998C20.398 27.9998 20.8609 27.9859 22.3579 27.9178C23.8432 27.8497 24.712 27.597 25.3272 27.3584C26.0969 27.0732 26.7937 26.6208 27.3676 26.034C27.954 25.4603 28.4062 24.7638 28.6915 23.9947C28.932 23.3774 29.1833 22.5075 29.2513 21.0241C29.3194 19.527 29.3333 19.0636 29.3333 15.3415C29.3333 11.6195 29.3194 11.1556 29.2512 9.65857C29.1828 8.16553 28.9278 7.29542 28.6882 6.67973C28.3748 5.8708 27.9774 5.259 27.3666 4.6482C26.7571 4.03982 26.1469 3.64223 25.3374 3.32856C24.7195 3.08699 23.8488 2.83358 22.3579 2.76526C22.2283 2.75936 22.1064 2.75386 21.9895 2.74875M4.10453 21.1415C4.10247 21.1029 4.10053 21.0639 4.09872 21.0245C4.09282 20.8947 4.08732 20.7727 4.0822 20.6557M10.9926 2.74873C12.4489 2.68229 12.9001 2.6665 16.675 2.6665C20.4499 2.6665 20.9008 2.68319 22.3567 2.74875M10.9926 2.74873L11.3608 2.74874M22.3567 2.74875L21.9895 2.74875M22.3567 2.74875C23.7196 2.81109 24.5986 3.02442 25.3447 3.31299L25.355 3.31692C26.1141 3.60286 26.8018 4.05078 27.3702 4.62953L27.378 4.63757L27.3861 4.64546C27.9649 5.21391 28.4128 5.90178 28.6985 6.66111L28.7034 6.67396C28.9929 7.41825 29.2054 8.29537 29.2678 9.65917M11.3608 2.74874L21.9895 2.74875M11.3608 2.74874C12.594 2.69482 13.2756 2.68321 16.675 2.68321C20.0747 2.68321 20.7561 2.69482 21.9895 2.74875M11.3608 2.74874C11.2438 2.75385 11.1218 2.75935 10.992 2.76526C9.50673 2.83332 8.63792 3.08602 8.02279 3.32461C7.25024 3.61099 6.55105 4.06565 5.97591 4.65566C5.37081 5.26325 4.97474 5.87212 4.66207 6.67903C4.42049 7.29691 4.16703 8.16802 4.0987 9.65896C4.09282 9.7883 4.08734 9.90993 4.08223 10.0266M29.2678 21.0239C29.2054 22.3876 28.9929 23.2652 28.7039 24.0101L28.6996 24.0215C28.4137 24.7806 27.9657 25.4683 27.387 26.0367L27.3789 26.0447L27.3709 26.0528C26.802 26.6323 26.1141 27.0798 25.3556 27.3649L25.3426 27.3699C24.5983 27.6594 23.7211 27.872 22.3573 27.9343M4.0822 20.6557C4.02828 19.4225 4.01667 18.741 4.01667 15.3415C4.01667 11.941 4.02827 11.2604 4.08223 10.0266M4.0822 20.6557L4.08223 10.0266M14.4207 20.784C15.1354 21.08 15.9014 21.2324 16.675 21.2324C18.2374 21.2324 19.7357 20.6118 20.8405 19.507C21.9452 18.4022 22.5659 16.9039 22.5659 15.3415C22.5659 13.7792 21.9452 12.2808 20.8405 11.176C19.7357 10.0713 18.2374 9.45064 16.675 9.45064C15.9014 9.45064 15.1354 9.60302 14.4207 9.89906C13.7059 10.1951 13.0565 10.629 12.5095 11.176C11.9625 11.7231 11.5286 12.3725 11.2325 13.0872C10.9365 13.8019 10.7841 14.5679 10.7841 15.3415C10.7841 16.1151 10.9365 16.8811 11.2325 17.5959C11.5286 18.3106 11.9625 18.96 12.5095 19.507C13.0565 20.054 13.7059 20.4879 14.4207 20.784ZM12.4964 11.1629C13.6046 10.0547 15.1077 9.43208 16.675 9.43208C18.2423 9.43208 19.7454 10.0547 20.8536 11.1629C21.9618 12.2712 22.5844 13.7742 22.5844 15.3415C22.5844 16.9088 21.9618 18.4119 20.8536 19.5201C19.7454 20.6284 18.2423 21.251 16.675 21.251C15.1077 21.251 13.6046 20.6284 12.4964 19.5201C11.3882 18.4119 10.7656 16.9088 10.7656 15.3415C10.7656 13.7742 11.3882 12.2712 12.4964 11.1629ZM25.912 8.05623C25.912 8.50481 25.7338 8.93503 25.4166 9.25223C25.0994 9.56942 24.6692 9.74762 24.2206 9.74762C23.772 9.74762 23.3418 9.56942 23.0246 9.25223C22.7074 8.93503 22.5292 8.50481 22.5292 8.05623C22.5292 7.60764 22.7074 7.17743 23.0246 6.86023C23.3418 6.54303 23.772 6.36483 24.2206 6.36483C24.6692 6.36483 25.0994 6.54303 25.4166 6.86023C25.7338 7.17743 25.912 7.60764 25.912 8.05623Z" stroke="black" stroke-width="1.6" stroke-linejoin="round"/>
</svg>
