<svg width="32" height="32" viewBox="0 0 32 32" fill="none" xmlns="http://www.w3.org/2000/svg">
<path d="M29.3333 4.62729V27.3724C29.3333 27.8924 29.1267 28.3912 28.759 28.7589C28.3913 29.1266 27.8925 29.3332 27.3725 29.3332H4.62741C4.10738 29.3332 3.60864 29.1266 3.24093 28.7589C2.87321 28.3912 2.66663 27.8924 2.66663 27.3724L2.66663 4.62729C2.66663 4.10726 2.87321 3.60852 3.24093 3.2408C3.60864 2.87309 4.10738 2.6665 4.62741 2.6665L27.3725 2.6665C27.8925 2.6665 28.3913 2.87309 28.759 3.2408C29.1267 3.60852 29.3333 4.10726 29.3333 4.62729V4.62729ZM10.5098 12.8626H6.58819V25.4116H10.5098V12.8626ZM10.8627 8.54886C10.8648 8.25222 10.8084 7.95808 10.6968 7.68324C10.5852 7.4084 10.4205 7.15823 10.2122 6.94702C10.0039 6.73581 9.75606 6.5677 9.4828 6.45228C9.20953 6.33686 8.9162 6.2764 8.61957 6.27435H8.54898C7.94574 6.27435 7.36721 6.51398 6.94066 6.94054C6.5141 7.36709 6.27447 7.94562 6.27447 8.54886C6.27447 9.15209 6.5141 9.73062 6.94066 10.1572C7.36721 10.5837 7.94574 10.8234 8.54898 10.8234V10.8234C8.84563 10.8307 9.14082 10.7794 9.41767 10.6726C9.69452 10.5658 9.94761 10.4055 10.1625 10.2008C10.3773 9.99612 10.5498 9.75112 10.6699 9.47979C10.7901 9.20845 10.8556 8.91611 10.8627 8.61945V8.54886ZM25.4117 17.7881C25.4117 14.0155 23.0117 12.5489 20.6274 12.5489C19.8467 12.5098 19.0695 12.676 18.3731 13.0311C17.6767 13.3862 17.0857 13.9176 16.6588 14.5724H16.549V12.8626H12.8627V25.4116H16.7843V18.7371C16.7276 18.0535 16.9429 17.3752 17.3835 16.8494C17.824 16.3237 18.4543 15.993 19.1372 15.9292H19.2862C20.5333 15.9292 21.4588 16.7136 21.4588 18.69V25.4116H25.3804L25.4117 17.7881Z" stroke="black" stroke-width="1.6" stroke-linejoin="round"/>
</svg>
