<svg width="228" height="62" viewBox="0 0 228 62" fill="none" xmlns="http://www.w3.org/2000/svg">
<path d="M10.7717 34.9207C11.9193 38.0103 14.5676 39.5552 18.7165 39.5552C21.409 39.5552 23.5276 38.7166 25.0724 37.0393L33.0172 41.6076C29.751 46.1538 24.94 48.4269 18.5841 48.4269C13.0227 48.4269 8.56481 46.7717 5.21033 43.4614C1.89999 40.151 0.244813 35.98 0.244813 30.9483C0.244813 25.9607 1.87792 21.8117 5.14412 18.5014C8.45447 15.1469 12.6917 13.4697 17.8558 13.4697C22.6669 13.4697 26.6614 15.1469 29.8393 18.5014C33.0614 21.8117 34.6724 25.9607 34.6724 30.9483C34.6724 32.3607 34.54 33.6848 34.2752 34.9207H10.7717ZM10.5731 27.5055H24.8076C23.8365 24.0186 21.4972 22.2752 17.7896 22.2752C13.9496 22.2752 11.5441 24.0186 10.5731 27.5055ZM61.3667 14.3966H71.2977V47.5H61.3667V44.3883C59.0274 47.0807 55.7391 48.4269 51.5019 48.4269C47.1322 48.4269 43.4026 46.7497 40.3129 43.3952C37.2233 39.9966 35.6784 35.8476 35.6784 30.9483C35.6784 26.049 37.2233 21.9221 40.3129 18.5676C43.4026 15.169 47.1322 13.4697 51.5019 13.4697C55.7391 13.4697 59.0274 14.8159 61.3667 17.5083V14.3966ZM47.7943 36.8407C49.2508 38.2972 51.1488 39.0255 53.4881 39.0255C55.8274 39.0255 57.7253 38.2972 59.1819 36.8407C60.6384 35.3841 61.3667 33.42 61.3667 30.9483C61.3667 28.4766 60.6384 26.5124 59.1819 25.0559C57.7253 23.5993 55.8274 22.871 53.4881 22.871C51.1488 22.871 49.2508 23.5993 47.7943 25.0559C46.3377 26.5124 45.6095 28.4766 45.6095 30.9483C45.6095 33.42 46.3377 35.3841 47.7943 36.8407ZM85.0134 24.0628C85.0134 24.7248 85.5652 25.2766 86.6686 25.7179C87.8162 26.1152 89.1845 26.5345 90.7734 26.9759C92.3624 27.3731 93.9514 27.9028 95.5403 28.5648C97.1293 29.2269 98.4755 30.3303 99.5789 31.8752C100.727 33.3759 101.3 35.2738 101.3 37.569C101.3 41.1441 99.9762 43.8586 97.3279 45.7124C94.6796 47.5221 91.4134 48.4269 87.5293 48.4269C80.5555 48.4269 75.8107 45.8007 73.2948 40.5483L81.9017 35.649C82.7845 38.2531 84.6603 39.5552 87.5293 39.5552C89.9127 39.5552 91.1045 38.871 91.1045 37.5028C91.1045 36.8407 90.5307 36.289 89.3831 35.8476C88.2796 35.4062 86.9334 34.9869 85.3445 34.5897C83.7555 34.1483 82.1665 33.5966 80.5776 32.9345C78.9886 32.2283 77.6203 31.1469 76.4727 29.6903C75.3693 28.2338 74.8176 26.4462 74.8176 24.3276C74.8176 20.8848 76.0534 18.2145 78.5252 16.3166C81.041 14.4186 84.1307 13.4697 87.7941 13.4697C90.5307 13.4697 93.0245 14.0876 95.2755 15.3234C97.5265 16.5152 99.3362 18.2586 100.704 20.5538L92.23 25.1221C91.1707 23.18 89.6921 22.209 87.7941 22.209C85.9403 22.209 85.0134 22.8269 85.0134 24.0628ZM123.108 14.3966H133.701L122.379 46.5069C120.526 51.7152 118.076 55.4448 115.031 57.6959C112.029 59.9469 108.189 60.9621 103.511 60.7414V51.4724C105.806 51.4724 107.571 51.0531 108.807 50.2145C110.043 49.42 111.036 48.0076 111.786 45.9772L98.6112 14.3966H109.535L116.884 34.6559L123.108 14.3966ZM152.919 0.228275C156.362 0.228275 160.444 0.75793 165.167 1.81724V47.5H155.236V8.90138C154.707 8.85724 153.934 8.83517 152.919 8.83517C148.814 8.83517 146.762 10.689 146.762 14.3966H151.595V23.9303H146.762V47.5H136.831V23.9303H132.395V14.3966H136.831C136.831 4.95103 142.193 0.228275 152.919 0.228275ZM193.855 14.3966H203.787V47.5H193.855V44.3883C191.516 47.0807 188.228 48.4269 183.991 48.4269C179.621 48.4269 175.891 46.7497 172.802 43.3952C169.712 39.9966 168.167 35.8476 168.167 30.9483C168.167 26.049 169.712 21.9221 172.802 18.5676C175.891 15.169 179.621 13.4697 183.991 13.4697C188.228 13.4697 191.516 14.8159 193.855 17.5083V14.3966ZM180.283 36.8407C181.74 38.2972 183.638 39.0255 185.977 39.0255C188.316 39.0255 190.214 38.2972 191.671 36.8407C193.127 35.3841 193.855 33.42 193.855 30.9483C193.855 28.4766 193.127 26.5124 191.671 25.0559C190.214 23.5993 188.316 22.871 185.977 22.871C183.638 22.871 181.74 23.5993 180.283 25.0559C178.827 26.5124 178.098 28.4766 178.098 30.9483C178.098 33.42 178.827 35.3841 180.283 36.8407ZM227.823 23.9303H221.003V35.649C221.003 36.9731 221.533 37.8117 222.592 38.1648C223.652 38.5179 225.395 38.6283 227.823 38.4959V47.5C221.511 48.1621 217.141 47.5662 214.714 45.7124C212.286 43.8145 211.072 40.46 211.072 35.649V23.9303H205.776V14.3966H211.072V8.1069L221.003 5.12758V14.3966H227.823V23.9303Z" fill="black"/>
</svg>
