<svg width="32" height="32" viewBox="0 0 32 32" fill="none" xmlns="http://www.w3.org/2000/svg">
<g clip-path="url(#clip0_36_88)">
<path d="M16 0.00341797C7.16379 0.00341797 0 7.1672 0 16.0034C0 19.2363 0.961317 22.252 2.61399 24.7672L0.553086 31.7466L7.80247 29.7384C10.1992 31.1738 13.0041 31.9968 16 31.9968C24.8362 31.9968 32 24.833 32 15.9968C32 7.1672 24.8362 0.00341797 16 0.00341797Z" fill="#25D366"/>
<path d="M24.7901 20.3962C24.7703 20.1855 24.6452 20.0011 24.4543 19.9155C23.1637 19.3229 21.8666 18.7303 20.5761 18.1377C20.4312 18.0719 20.2534 18.1048 20.1481 18.2299L18.3966 20.2052C18.2584 20.3633 18.0411 20.4159 17.8501 20.3369C16.9415 19.9616 15.7168 19.3295 14.4789 18.2628C12.9975 16.9921 12.1283 15.6291 11.6411 14.7402C11.8847 14.5756 12.5497 14.0818 12.846 13.1666C12.846 13.16 12.8526 13.1534 12.8526 13.1534C13.037 12.5871 12.9975 11.9748 12.7933 11.4151C12.4444 10.4867 11.7464 8.68919 11.4765 8.41264C11.4304 8.36655 11.3777 8.32046 11.3777 8.32046C11.1802 8.14268 10.9234 8.04392 10.6534 8.03075C10.5612 8.02417 10.4625 8.02417 10.3571 8.02417C10.0543 8.01758 9.78429 8.01758 9.58676 8.04392C9.02709 8.12293 8.61886 8.49824 8.36207 8.81429C8.05261 9.1896 7.68388 9.74927 7.44026 10.4867C7.42051 10.5526 7.40076 10.6118 7.381 10.6777C7.11104 11.6126 7.16372 12.6135 7.48635 13.5353C7.78923 14.3978 8.23039 15.425 8.89541 16.5114C10.0213 18.3616 11.246 19.5073 12.0757 20.2645C13.0106 21.127 14.1695 22.1871 16.0065 23.0694C17.7053 23.8859 19.246 24.1888 20.2798 24.3139C20.7012 24.3534 21.4781 24.36 22.367 24.0242C22.7752 23.8661 23.1176 23.6752 23.3942 23.4711C24.125 22.9509 24.6386 22.1674 24.7703 21.2851C24.7703 21.2785 24.7703 21.2719 24.7703 21.2653C24.8164 20.9295 24.8098 20.6398 24.7901 20.3962Z" fill="white"/>
</g>
<defs>
<clipPath id="clip0_36_88">
<rect width="32" height="32" fill="white"/>
</clipPath>
</defs>
</svg>
