<svg width="32" height="32" viewBox="0 0 32 32" fill="none" xmlns="http://www.w3.org/2000/svg">
<path d="M15.987 1.8667C19.7329 1.8668 23.2551 3.32064 25.905 5.97021C27.212 7.27046 28.2488 8.81749 28.9538 10.521C29.6585 12.2239 30.0181 14.0501 30.0124 15.8931L30.0085 16.2534C29.8165 23.8139 23.6063 29.9048 15.9997 29.9048C13.7571 29.9047 11.5651 29.3708 9.58464 28.3442L2.86979 30.1069C2.59314 30.1795 2.29838 30.0985 2.09733 29.895C1.89658 29.6916 1.81937 29.3962 1.89519 29.1206L3.69011 22.5933C2.57197 20.5385 1.98502 18.235 1.98796 15.8921C1.97488 8.15148 8.26088 1.8667 15.987 1.8667ZM15.987 3.46631C9.14444 3.46631 3.57505 9.035 3.58757 15.8911V15.894C3.58483 18.0695 4.15578 20.2073 5.24186 22.0923C5.3486 22.2775 5.3767 22.4985 5.31999 22.7046L3.80632 28.2065L9.48015 26.7183L9.62956 26.6938C9.78059 26.6838 9.93249 26.7168 10.0671 26.7905C11.8838 27.7865 13.9156 28.3051 15.9997 28.3052C22.8432 28.3052 28.4126 22.7357 28.4128 15.8931V15.8901C28.4181 14.2581 28.0993 12.6413 27.4753 11.1333C26.8512 9.62527 25.9341 8.25601 24.777 7.10498L24.776 7.10303C22.427 4.75328 19.3109 3.4664 15.987 3.46631ZM11.3083 8.97705C11.5148 8.97705 11.74 8.97836 11.9577 8.99072C12.0824 8.99066 12.3951 8.98737 12.7175 9.17236C13.042 9.35865 13.2631 9.66354 13.4235 10.0269L13.7048 10.687C13.8092 10.94 13.9189 11.2126 14.0202 11.4634C14.1233 11.7186 14.2184 11.9541 14.2926 12.1353L14.404 12.4038L14.4176 12.4302C14.5506 12.696 14.7128 13.1845 14.445 13.7222C14.4389 13.7344 14.4322 13.7464 14.4255 13.7583C14.3601 13.8741 14.2293 14.1683 14.0026 14.4351L14.0007 14.438C13.9052 14.5493 13.7197 14.7775 13.5592 14.9536C13.8379 15.3911 14.3808 16.1947 15.1208 16.854L15.1217 16.855C16.1928 17.8119 17.0639 18.1354 17.4997 18.3276C17.7521 18.041 18.1908 17.5175 18.3366 17.2896L18.3454 17.2759C18.5401 16.9842 18.8339 16.7317 19.2555 16.6841C19.5841 16.6469 19.8866 16.7597 20.0124 16.8032H20.0143C20.2252 16.8769 20.7633 17.1351 21.2194 17.3569L22.3532 17.9126L22.3903 17.9312C22.4591 17.9685 22.5242 18.0017 22.5915 18.0356C22.6542 18.0673 22.7309 18.1055 22.7995 18.1431C22.8927 18.1941 23.1018 18.3081 23.2614 18.5171L23.3258 18.6128L23.3278 18.6147C23.402 18.7394 23.4333 18.8614 23.4479 18.9282C23.4652 19.0073 23.4747 19.0863 23.4801 19.1587C23.4911 19.3042 23.4887 19.4683 23.4743 19.6401C23.4453 19.9858 23.3642 20.4128 23.2067 20.8618L23.2048 20.8687C22.971 21.5151 22.3739 22.0119 21.8903 22.3228C21.3944 22.6414 20.7855 22.9105 20.3092 22.9634C20.0535 22.9921 19.641 23.0824 18.9538 22.9907C18.294 22.9027 17.3846 22.655 15.9626 22.0942L15.9616 22.0933C14.1251 21.3657 12.6576 20.0781 11.6452 18.98C11.135 18.4265 10.7305 17.9106 10.443 17.519C10.2993 17.3232 10.1849 17.1582 10.1012 17.0356C10.0598 16.9748 10.025 16.9233 10.0007 16.8872C9.98195 16.8595 9.9725 16.8468 9.9694 16.8423V16.8413C9.87653 16.7176 9.51012 16.2281 9.16472 15.5464C8.82306 14.872 8.46647 13.9416 8.46647 12.9487C8.46647 10.9929 9.51387 9.99796 9.83268 9.65283L9.92546 9.55811C10.3933 9.10497 10.9375 8.97715 11.3083 8.97705ZM10.0671 12.9487C10.0671 13.5824 10.3016 14.2515 10.5915 14.8237C10.7335 15.1041 10.8805 15.3451 11.0007 15.5278L11.2507 15.8823L11.2516 15.8843C11.4732 16.1809 13.451 19.378 16.5505 20.606H16.5495C17.9222 21.1472 18.6931 21.3417 19.1657 21.4048C19.6101 21.464 19.7825 21.4126 20.1315 21.3735H20.1325C20.2604 21.3594 20.6271 21.2328 21.0251 20.9771C21.4298 20.7169 21.645 20.4642 21.6969 20.3296C21.8075 20.0139 21.8615 19.7223 21.8796 19.5073C21.8806 19.4944 21.8807 19.4813 21.8815 19.4692C21.8784 19.4676 21.875 19.466 21.8717 19.4644C21.8064 19.4314 21.7272 19.3911 21.6403 19.3442C21.4516 19.2533 20.9691 19.0152 20.5192 18.7964C20.2787 18.6794 20.0423 18.5657 19.8483 18.4751C19.7511 18.4297 19.667 18.3912 19.6003 18.3618C19.5826 18.354 19.5666 18.3474 19.5524 18.3413C19.2462 18.762 18.7255 19.3666 18.5475 19.5571L18.5456 19.5552C18.3667 19.7527 18.1086 19.9447 17.7497 19.9868C17.4172 20.0257 17.1242 19.9211 16.905 19.813L16.5358 19.6528C16.0173 19.4252 15.0853 18.9674 14.0573 18.0493L13.8591 17.8667C12.8921 16.9447 12.2545 15.8876 12.069 15.5913C12.0619 15.5799 12.0551 15.5679 12.0485 15.5562C11.8714 15.2382 11.7968 14.8668 11.9333 14.4917C12.0376 14.2054 12.2392 14.0108 12.3317 13.9253C12.4509 13.8065 12.58 13.636 12.7858 13.396C12.8226 13.3524 12.8469 13.3146 12.8766 13.2612C12.8946 13.229 12.9125 13.1959 12.9391 13.145C12.9471 13.1298 12.9554 13.1134 12.9645 13.0962C12.919 12.9986 12.8601 12.8612 12.8112 12.7417C12.7351 12.5558 12.6386 12.315 12.5368 12.063C12.3295 11.5499 12.1048 10.995 11.9645 10.6831L11.9606 10.6763C11.9442 10.6388 11.9288 10.6103 11.9167 10.5884C11.9118 10.5881 11.9069 10.5887 11.902 10.5884C11.7318 10.5771 11.5428 10.5767 11.3083 10.5767C11.2744 10.5768 11.1414 10.5933 11.0114 10.7349L11.0104 10.7358C10.7082 11.0635 10.0671 11.6557 10.0671 12.9487Z" fill="black"/>
</svg>
