<svg width="20" height="20" viewBox="0 0 20 20" fill="none" xmlns="http://www.w3.org/2000/svg">
<path d="M11.6667 14.167H4.16675" stroke="black" stroke-width="2" stroke-linecap="round" stroke-linejoin="round"/>
<path d="M15.8333 5.83301H8.33325" stroke="black" stroke-width="2" stroke-linecap="round" stroke-linejoin="round"/>
<path d="M14.1667 16.667C15.5475 16.667 16.6667 15.5477 16.6667 14.167C16.6667 12.7863 15.5475 11.667 14.1667 11.667C12.786 11.667 11.6667 12.7863 11.6667 14.167C11.6667 15.5477 12.786 16.667 14.1667 16.667Z" stroke="black" stroke-width="2" stroke-linecap="round" stroke-linejoin="round"/>
<path d="M5.83325 8.33301C7.21396 8.33301 8.33325 7.21372 8.33325 5.83301C8.33325 4.4523 7.21396 3.33301 5.83325 3.33301C4.45254 3.33301 3.33325 4.4523 3.33325 5.83301C3.33325 7.21372 4.45254 8.33301 5.83325 8.33301Z" stroke="black" stroke-width="2" stroke-linecap="round" stroke-linejoin="round"/>
</svg>
