<svg width="84" height="23" viewBox="0 0 84 23" fill="none" xmlns="http://www.w3.org/2000/svg">
<path d="M4.536 13.44C4.952 14.56 5.912 15.12 7.416 15.12C8.392 15.12 9.16 14.816 9.72 14.208L12.6 15.864C11.416 17.512 9.672 18.336 7.368 18.336C5.352 18.336 3.736 17.736 2.52 16.536C1.32 15.336 0.72 13.824 0.72 12C0.72 10.192 1.312 8.688 2.496 7.488C3.696 6.272 5.232 5.664 7.104 5.664C8.848 5.664 10.296 6.272 11.448 7.488C12.616 8.688 13.2 10.192 13.2 12C13.2 12.512 13.152 12.992 13.056 13.44H4.536ZM4.464 10.752H9.624C9.272 9.488 8.424 8.856 7.08 8.856C5.688 8.856 4.816 9.488 4.464 10.752ZM22.8767 6H26.4767V18H22.8767V16.872C22.0287 17.848 20.8367 18.336 19.3007 18.336C17.7167 18.336 16.3647 17.728 15.2447 16.512C14.1247 15.28 13.5647 13.776 13.5647 12C13.5647 10.224 14.1247 8.728 15.2447 7.512C16.3647 6.28 17.7167 5.664 19.3007 5.664C20.8367 5.664 22.0287 6.152 22.8767 7.128V6ZM17.9567 14.136C18.4847 14.664 19.1727 14.928 20.0207 14.928C20.8687 14.928 21.5567 14.664 22.0847 14.136C22.6127 13.608 22.8767 12.896 22.8767 12C22.8767 11.104 22.6127 10.392 22.0847 9.864C21.5567 9.336 20.8687 9.072 20.0207 9.072C19.1727 9.072 18.4847 9.336 17.9567 9.864C17.4287 10.392 17.1647 11.104 17.1647 12C17.1647 12.896 17.4287 13.608 17.9567 14.136ZM31.4486 9.504C31.4486 9.744 31.6486 9.944 32.0486 10.104C32.4646 10.248 32.9606 10.4 33.5366 10.56C34.1126 10.704 34.6886 10.896 35.2646 11.136C35.8406 11.376 36.3286 11.776 36.7286 12.336C37.1446 12.88 37.3526 13.568 37.3526 14.4C37.3526 15.696 36.8726 16.68 35.9126 17.352C34.9526 18.008 33.7686 18.336 32.3606 18.336C29.8326 18.336 28.1126 17.384 27.2006 15.48L30.3206 13.704C30.6406 14.648 31.3206 15.12 32.3606 15.12C33.2246 15.12 33.6566 14.872 33.6566 14.376C33.6566 14.136 33.4486 13.936 33.0326 13.776C32.6326 13.616 32.1446 13.464 31.5686 13.32C30.9926 13.16 30.4166 12.96 29.8406 12.72C29.2646 12.464 28.7686 12.072 28.3526 11.544C27.9526 11.016 27.7526 10.368 27.7526 9.6C27.7526 8.352 28.2006 7.384 29.0966 6.696C30.0086 6.008 31.1286 5.664 32.4566 5.664C33.4486 5.664 34.3526 5.888 35.1686 6.336C35.9846 6.768 36.6406 7.4 37.1366 8.232L34.0646 9.888C33.6806 9.184 33.1446 8.832 32.4566 8.832C31.7846 8.832 31.4486 9.056 31.4486 9.504ZM45.2578 6H49.0978L44.9938 17.64C44.3218 19.528 43.4338 20.88 42.3298 21.696C41.2418 22.512 39.8498 22.88 38.1538 22.8V19.44C38.9858 19.44 39.6258 19.288 40.0738 18.984C40.5218 18.696 40.8818 18.184 41.1538 17.448L36.3778 6H40.3378L43.0018 13.344L45.2578 6ZM56.0644 0.863999C57.3124 0.863999 58.7924 1.056 60.5044 1.44V18H56.9044V4.008C56.7124 3.992 56.4324 3.984 56.0644 3.984C54.5764 3.984 53.8324 4.656 53.8324 6H55.5844V9.456H53.8324V18H50.2324V9.456H48.6244V6H50.2324C50.2324 2.576 52.1764 0.863999 56.0644 0.863999ZM70.9039 6H74.5039V18H70.9039V16.872C70.0559 17.848 68.8639 18.336 67.3279 18.336C65.7439 18.336 64.3919 17.728 63.2719 16.512C62.1519 15.28 61.5919 13.776 61.5919 12C61.5919 10.224 62.1519 8.728 63.2719 7.512C64.3919 6.28 65.7439 5.664 67.3279 5.664C68.8639 5.664 70.0559 6.152 70.9039 7.128V6ZM65.9839 14.136C66.5119 14.664 67.1999 14.928 68.0479 14.928C68.8959 14.928 69.5839 14.664 70.1119 14.136C70.6399 13.608 70.9039 12.896 70.9039 12C70.9039 11.104 70.6399 10.392 70.1119 9.864C69.5839 9.336 68.8959 9.072 68.0479 9.072C67.1999 9.072 66.5119 9.336 65.9839 9.864C65.4559 10.392 65.1919 11.104 65.1919 12C65.1919 12.896 65.4559 13.608 65.9839 14.136ZM83.217 9.456H80.745V13.704C80.745 14.184 80.937 14.488 81.321 14.616C81.705 14.744 82.337 14.784 83.217 14.736V18C80.929 18.24 79.345 18.024 78.465 17.352C77.585 16.664 77.145 15.448 77.145 13.704V9.456H75.225V6H77.145V3.72L80.745 2.64V6H83.217V9.456Z" fill="white"/>
</svg>
