<svg width="84" height="84" viewBox="0 0 84 84" fill="none" xmlns="http://www.w3.org/2000/svg">
<path d="M46.8795 6.09061C52.6128 5.62909 58.2219 6.93933 62.5179 9.82161C66.8609 12.7355 70.1676 17.5574 69.8657 23.6678C69.5415 30.2302 67.0159 35.499 62.9785 39.3078C59.0505 43.0133 53.9996 45.0585 48.9055 45.9714C41.5124 47.2962 33.2016 46.384 26.1292 43.7496C26.1938 47.7987 27.2225 52.2811 29.4753 56.2239C32.8579 62.144 39.0981 67.0366 49.7616 67.0366C59.9304 67.0366 66.7977 61.74 69.9319 55.8656C73.1945 49.7506 72.1621 44.1392 68.653 41.3176L75.1758 32.6676C84.1213 39.8606 84.1097 52.0121 79.231 61.1563C74.2238 70.541 63.7874 78 49.7616 78C35.3119 78 25.6084 71.031 20.3312 61.7949C16.0557 54.3121 14.7516 45.4607 15.9128 38.0225C8.35241 32.1747 2.36361 23.7427 1.5 14.6465L12.0664 13.5769C12.4702 17.8301 15.1613 22.7159 19.5364 26.8995C25.9342 13.2673 36.7018 6.90989 46.8795 6.09061ZM56.7334 19.015C54.676 17.6346 51.4665 16.7181 47.7045 17.0209C41.2723 17.5387 33.3092 21.6737 28.5185 32.9558C34.0056 35.2724 41.0212 36.2569 47.0902 35.1694C50.8186 34.5013 53.7956 33.1211 55.8176 31.2136C57.7301 29.4093 59.0765 26.8775 59.2627 23.1092C59.3253 21.8405 58.7437 20.3637 56.7334 19.015Z" fill="black"/>
</svg>
